<?xml version="1.0" encoding="UTF-8" standalone="no"?>
<!-- Created with Inkscape (http://www.inkscape.org/) -->

<svg
   width="213.8344mm"
   height="264.58334mm"
   viewBox="0 0 213.8344 264.58334"
   version="1.1"
   id="svg1"
   xml:space="preserve"
   xmlns:inkscape="http://www.inkscape.org/namespaces/inkscape"
   xmlns:sodipodi="http://sodipodi.sourceforge.net/DTD/sodipodi-0.dtd"
   xmlns="http://www.w3.org/2000/svg"
   xmlns:svg="http://www.w3.org/2000/svg"><sodipodi:namedview
     id="namedview1"
     pagecolor="#ffffff"
     bordercolor="#000000"
     borderopacity="0.25"
     inkscape:showpageshadow="2"
     inkscape:pageopacity="0.0"
     inkscape:pagecheckerboard="0"
     inkscape:deskcolor="#d1d1d1"
     inkscape:document-units="mm"
     inkscape:zoom="0.81023078"
     inkscape:cx="2267.8724"
     inkscape:cy="1063.2773"
     inkscape:window-width="3840"
     inkscape:window-height="2054"
     inkscape:window-x="-11"
     inkscape:window-y="-11"
     inkscape:window-maximized="1"
     inkscape:current-layer="g7" /><defs
     id="defs1" /><g
     inkscape:label="Layer 1"
     inkscape:groupmode="layer"
     id="layer1"
     transform="translate(-535.23512,-38.148196)"><g
       id="g3"><g
         id="g4"
         transform="matrix(0.36073785,-0.20827209,0.20827209,0.36073785,437.93863,247.16707)"><g
           id="g7"
           transform="matrix(9.9999955,0,0,9.9999955,-4078.6432,2859.9752)"
           inkscape:export-filename="Vela_Logo_Vector_Black.png"
           inkscape:export-xdpi="96"
           inkscape:export-ydpi="96"
           style="fill:#ffffff"><path
             style="fill:#ffffff;stroke-width:0.153503"
             d="m 542.93128,64.573334 c -0.18629,-0.05667 -0.34344,-0.156823 -0.49279,-0.31408 -0.25242,-0.265774 -0.29812,-0.392179 -0.29855,-0.825789 -4e-4,-0.331529 0.0138,-0.413712 0.10077,-0.583902 0.1267,-0.248082 0.39461,-0.487147 0.6394,-0.570554 0.21286,-0.07253 0.60936,-0.08341 0.82788,-0.02271 0.16813,0.0467 0.42167,0.206581 0.42167,0.2659 0,0.02197 -0.0477,0.100874 -0.10597,0.17535 l -0.10598,0.135413 -0.16743,-0.110799 c -0.28454,-0.188299 -0.65915,-0.177287 -0.91887,0.02701 -0.35507,0.279301 -0.37415,0.995146 -0.0347,1.302112 0.22464,0.203143 0.58426,0.24588 0.86744,0.103086 0.17648,-0.08899 0.18153,-0.09696 0.19349,-0.30461 l 0.0123,-0.213224 h -0.28642 -0.28643 V 63.453774 63.27101 h 0.48923 0.48922 l -0.006,0.49037 -0.006,0.490372 -0.16461,0.119244 c -0.0905,0.06558 -0.25632,0.146479 -0.36841,0.179765 -0.21395,0.06354 -0.62561,0.07517 -0.79853,0.02257 z m -4.02056,-0.02919 c 0,-0.02616 0.50226,-1.222369 0.8202,-1.953425 l 0.16339,-0.375684 h 0.17337 c 0.0954,0 0.19088,0.02285 0.21228,0.05077 0.0214,0.02792 0.22702,0.489404 0.45692,1.025514 0.2299,0.536109 0.45098,1.044155 0.4913,1.128993 l 0.0733,0.154249 -0.22419,-0.0121 -0.22419,-0.0121 -0.11181,-0.263994 -0.1118,-0.263991 -0.53728,-0.01134 -0.53728,-0.01136 -0.12685,0.285498 -0.12686,0.285499 h -0.19524 c -0.10739,0 -0.19525,-0.01194 -0.19525,-0.02653 z m 1.53198,-0.958373 c -0.13111,-0.331849 -0.32741,-0.788108 -0.34906,-0.811305 -0.0151,-0.01622 -0.11165,0.171122 -0.21448,0.416298 l -0.18698,0.445774 h 0.38529 c 0.29185,0 0.38042,-0.0123 0.36523,-0.05077 z m 5.12877,-0.172613 v -1.157507 h 0.84304 0.84304 l -0.0145,0.182764 -0.0145,0.182764 h -0.62543 -0.62543 v 0.304608 0.304609 h 0.5686 0.5686 v 0.182762 0.182766 h -0.5686 -0.5686 v 0.304608 0.304607 h 0.64983 0.64983 v 0.182764 0.182766 h -0.85291 -0.8529 z m 2.96485,0 v -1.157507 h 0.19962 0.19962 l 0.60251,0.793378 0.60252,0.793378 0.011,-0.793378 0.011,-0.793378 h 0.20221 0.20222 v 1.159733 1.159734 l -0.19176,-0.01236 -0.19177,-0.01236 -0.61037,-0.804938 -0.61037,-0.80494 -0.011,0.815094 -0.011,0.815093 h -0.20223 -0.20223 z m 3.89898,0.182766 v -0.974745 h -0.36553 -0.36553 v -0.182764 -0.182764 h 0.95444 0.95443 v 0.182764 0.182764 h -0.38584 -0.38583 v 0.974745 0.974745 h -0.20307 -0.20307 z m -8.04165,-3.393739 c -0.44347,-0.09559 -0.83258,-0.314753 -1.17892,-0.664008 -0.52341,-0.527833 -0.73399,-1.103707 -0.7365,-2.014098 -0.003,-0.958931 0.24568,-1.641353 0.79944,-2.197021 0.49807,-0.499793 1.07015,-0.717876 1.88766,-0.719606 1.49562,-0.0032 2.47435,0.912048 2.47687,2.316137 4e-4,0.28865 -0.01,0.339309 -0.0779,0.375682 -0.051,0.02728 -0.75196,0.04204 -1.9961,0.04204 h -1.91754 l 0.0259,0.336353 c 0.0457,0.595208 0.22212,1.034278 0.55822,1.389651 0.25087,0.265252 0.55842,0.416797 0.96661,0.476291 0.63388,0.09239 1.17301,-0.09178 1.68084,-0.574173 0.16667,-0.158316 0.33188,-0.287849 0.36713,-0.287849 0.0353,0 0.11431,0.0432 0.17568,0.09599 l 0.1116,0.09599 -0.13237,0.206274 c -0.3353,0.522516 -1.02561,0.991788 -1.65516,1.125168 -0.34789,0.07371 -1.00669,0.07233 -1.35537,-0.0028 z m 2.02334,-3.485572 c 0.0368,-0.449158 -0.21756,-1.152317 -0.50964,-1.408774 -0.31923,-0.280289 -0.76384,-0.380611 -1.16717,-0.26336 -0.28801,0.08372 -0.59992,0.374542 -0.7646,0.712877 -0.12418,0.255151 -0.27237,0.800344 -0.27237,1.002096 v 0.1362 l 1.35043,-0.0107 1.35043,-0.0107 z m 5.95739,3.494521 c -0.42868,-0.14261 -0.72221,-0.391874 -0.88664,-0.752902 -0.0673,-0.147798 -0.0858,-0.269816 -0.0868,-0.573573 -10e-4,-0.348842 0.0108,-0.411348 0.12479,-0.65192 0.37013,-0.78107 1.27119,-1.189705 2.9967,-1.359016 l 0.27978,-0.02745 -0.0248,-0.290616 c -0.0752,-0.880273 -0.45322,-1.274706 -1.2621,-1.316946 -0.32038,-0.01674 -0.40804,-0.0058 -0.66266,0.0828 -0.16138,0.05614 -0.44937,0.205847 -0.63998,0.332672 -0.3747,0.249318 -0.49366,0.271164 -0.57582,0.105747 -0.0666,-0.134112 -0.0227,-0.204253 0.28219,-0.450256 0.31813,-0.256722 0.89791,-0.545165 1.26766,-0.630666 0.33809,-0.07817 1.0513,-0.08618 1.3414,-0.01505 0.63825,0.156488 1.05892,0.597454 1.26282,1.323729 0.0538,0.191627 0.0713,0.532607 0.0917,1.789377 l 0.0252,1.552636 0.11262,0.112553 c 0.0979,0.09788 0.14425,0.112553 0.35537,0.112553 0.21657,0 0.24276,0.0089 0.24276,0.08213 0,0.124449 -0.21074,0.354086 -0.4216,0.459394 -0.20858,0.104168 -0.54927,0.153618 -0.77133,0.111959 -0.29193,-0.05477 -0.53607,-0.372613 -0.58162,-0.757223 l -0.0237,-0.199724 -0.26627,0.249088 c -0.31997,0.299315 -0.66501,0.528212 -0.97567,0.647247 -0.28765,0.110219 -0.9574,0.14552 -1.20404,0.06347 z m 1.43041,-0.69733 c 0.28861,-0.08571 0.56476,-0.283107 0.79208,-0.566209 l 0.19406,-0.24167 v -0.756812 -0.756812 l -0.25384,0.03381 c -0.7925,0.105549 -1.35099,0.308419 -1.67949,0.610072 -0.26185,0.240441 -0.33908,0.425825 -0.34018,0.816565 -10e-4,0.344715 0.0683,0.538108 0.25529,0.712595 0.21739,0.202854 0.64284,0.264056 1.03208,0.148463 z m -14.84424,0.660361 c -0.0227,-0.02792 -0.63952,-1.384949 -1.37062,-3.015616 -0.73109,-1.630664 -1.38933,-3.083642 -1.46275,-3.228839 -0.17035,-0.33688 -0.38879,-0.5476 -0.67048,-0.646802 -0.18251,-0.06428 -0.22158,-0.09469 -0.22158,-0.172527 v -0.09449 l 1.33544,-0.01072 c 1.35426,-0.01086 1.44664,-0.002 1.44664,0.138044 0,0.03105 -0.10115,0.101193 -0.22477,0.155866 -0.17848,0.07893 -0.23728,0.129324 -0.28547,0.244658 -0.0962,0.23023 -0.17275,0.03127 1.31584,3.419502 0.40425,0.920124 0.74674,1.719719 0.76108,1.776877 0.0143,0.05716 0.04,0.103926 0.0569,0.103926 0.0463,0 1.91051,-4.69784 1.96333,-4.947599 0.0404,-0.191074 0.0364,-0.233303 -0.0344,-0.365531 -0.0531,-0.09912 -0.1388,-0.176777 -0.25441,-0.230454 -0.14538,-0.0675 -0.17237,-0.09787 -0.16245,-0.182764 l 0.0119,-0.101809 h 0.97474 0.97475 l 0.013,0.09156 c 0.009,0.05995 -0.0125,0.100352 -0.0609,0.117019 -0.27438,0.09448 -0.55076,0.244387 -0.66182,0.358973 -0.0984,0.101524 -0.27792,0.493101 -0.73854,1.610932 -1.46644,3.558709 -2.03909,4.93239 -2.07594,4.97979 -0.0247,0.03171 -0.14248,0.05077 -0.31384,0.05077 -0.17035,0 -0.29002,-0.01925 -0.3157,-0.05077 z m 9.5223,0.02437 c -0.0716,-0.07157 -0.0183,-0.180597 0.12098,-0.247432 0.18908,-0.09076 0.29818,-0.238657 0.34151,-0.462992 0.0464,-0.240026 0.0453,-5.49709 -10e-4,-5.697412 -0.049,-0.211347 -0.1571,-0.352448 -0.33941,-0.443092 -0.10916,-0.05427 -0.14969,-0.100355 -0.14969,-0.170211 0,-0.08797 0.0561,-0.114232 0.68672,-0.321568 0.7286,-0.239552 0.82053,-0.257286 0.89137,-0.171934 0.0315,0.03799 0.0479,1.063195 0.0557,3.482679 0.0104,3.235552 0.0153,3.436525 0.0855,3.565275 0.047,0.08623 0.13336,0.160958 0.2346,0.203071 0.13274,0.05521 0.15827,0.08404 0.14897,0.168169 l -0.0112,0.101534 -1.01806,0.01084 c -0.55994,0.006 -1.03056,-0.0016 -1.04582,-0.01692 z"
             id="path1"
             sodipodi:nodetypes="sscssssscssssscccccccccsssssscsssscccccccccsssssscsscccccccccccccccccccccccccccccccccccccccccccccccccccccccccccccccssssscsscsssssscssssssssscccsssccscsssssssssscsssssscsssssscccsscssssssscssssssssssscccsssssssscsscsssssssscscc"
             inkscape:export-filename="Vela_Logo_Black_100.png"
             inkscape:export-xdpi="96"
             inkscape:export-ydpi="96"
             transform="matrix(2.0790721,1.2003528,-1.2003528,2.0790721,-613.81831,-1039.559)" /><path
             id="path3"
             style="color:#000000;fill:#ffffff;stroke-width:0.200701;stroke-dashoffset:17.3764;-inkscape-stroke:none"
             d="m 468.74555,-306.37893 c -6.03322,0 -11.26659,3.43481 -13.85994,8.45194 h 0.95386 c 2.51449,-4.53598 7.34841,-7.60521 12.90608,-7.60521 5.55767,0 10.39149,3.06923 12.90598,7.60521 h 0.95355 c -2.59323,-5.01713 -7.8263,-8.45194 -13.85953,-8.45194 z m -12.90826,24.34522 c 2.80653,4.13042 7.54218,6.84612 12.90826,6.84612 5.36608,0 10.10153,-2.7157 12.90795,-6.84612 h -1.03258 c -2.68489,3.63931 -7.00182,5.99939 -11.87537,5.99939 -4.87355,0 -9.19058,-2.36008 -11.87546,-5.99939 z" /><path
             style="fill:#ffffff;fill-opacity:1;stroke:#ffffff;stroke-width:1.93034;stroke-linecap:round;stroke-linejoin:round;stroke-dasharray:none;stroke-dashoffset:17.3764;stroke-opacity:1"
             d="m 454.19574,-295.23987 v 10.19138"
             id="path4"
             sodipodi:nodetypes="cc" /><path
             style="fill:#ffffff;fill-opacity:1;stroke:#ffffff;stroke-width:1.93034;stroke-linecap:round;stroke-linejoin:round;stroke-dasharray:none;stroke-dashoffset:17.3764;stroke-opacity:1"
             d="m 459.8519,-297.70039 v 15.00852"
             id="path4-0"
             sodipodi:nodetypes="cc" /><path
             style="fill:#ffffff;fill-opacity:1;stroke:#ffffff;stroke-width:1.93034;stroke-linecap:round;stroke-linejoin:round;stroke-dasharray:none;stroke-dashoffset:17.3764;stroke-opacity:1"
             d="m 465.5733,-295.91504 v 10.87955"
             id="path4-9"
             sodipodi:nodetypes="cc" /><path
             style="fill:#ffffff;fill-opacity:1;stroke:#ffffff;stroke-width:1.93034;stroke-linecap:round;stroke-linejoin:round;stroke-dasharray:none;stroke-dashoffset:17.3764;stroke-opacity:1"
             d="m 471.61807,-294.35334 v 7.24211"
             id="path4-1"
             sodipodi:nodetypes="cc" /><path
             style="fill:#ffffff;fill-opacity:1;stroke:#ffffff;stroke-width:1.93034;stroke-linecap:round;stroke-linejoin:round;stroke-dasharray:none;stroke-dashoffset:17.3764;stroke-opacity:1"
             d="m 477.35665,-297.05884 v 13.20619"
             id="path4-7"
             sodipodi:nodetypes="cc" /><path
             style="fill:#ffffff;fill-opacity:1;stroke:#ffffff;stroke-width:1.93034;stroke-linecap:round;stroke-linejoin:round;stroke-dasharray:none;stroke-dashoffset:17.3764;stroke-opacity:1"
             d="m 483.09427,-295.73204 v 10.19137"
             id="path4-6"
             sodipodi:nodetypes="cc" /></g></g></g></g></svg>
